<svg xmlns:xlink="http://www.w3.org/1999/xlink" width="180" height="30" viewBox="0 0 180 30" fill="none" xmlns="http://www.w3.org/2000/svg">
<path fill-rule="evenodd" clip-rule="evenodd" d="M162.06 16.6609C162.06 20.8058 164.292 23.7044 167.731 23.7044C168.75 23.7006 169.75 23.4265 170.625 22.9106C171.501 22.3947 172.221 21.6558 172.71 20.771H172.769V23.6696L179.072 22.3246V22.2667C178.117 21.2232 177.531 20.3247 177.531 16.9855V0L171.17 1.73913V1.79712C172.195 3.05509 172.681 4.30726 172.681 6.57393V8.63189C171.811 8.36232 170.904 8.23123 169.992 8.24349C164.808 8.24349 162.06 12.1565 162.06 16.6609ZM172.681 11.9362V20.1507H172.687C172.363 20.5056 171.965 20.7876 171.522 20.9776C171.078 21.1676 170.598 21.2613 170.115 21.2522C168.153 21.2522 167.069 19.3971 167.069 15.4551C167.069 10.887 168.334 8.77102 170.267 8.77102C171.621 8.77102 172.406 9.81451 172.681 11.9362ZM3.62022 22.2099L1.81011 23.3693H1.5055V6.55769C1.5055 4.32001 1.02514 3.07946 0 1.8099V1.7519L6.36174 0.0127748V10.6041H6.45547C6.99256 9.87224 7.69733 9.27682 8.51195 8.86669C9.32657 8.45656 10.2279 8.24339 11.1418 8.24466C14.6566 8.24466 16.9998 11.2592 16.9998 15.7055C16.9998 20.2447 14.3813 23.7055 8.79865 23.7055C6.95482 23.7716 5.13868 23.247 3.62022 22.2099ZM12.003 16.633C12.003 12.4244 10.8314 10.662 8.56433 10.662C7.77988 10.6535 7.01147 10.882 6.36174 11.3171V18.5113C6.36174 21.9142 7.80866 23.149 9.16771 23.149C11.218 23.1664 12.003 20.5113 12.003 16.633ZM25.9332 23.7043C21.3464 23.7043 18.6049 20.4232 18.6049 16.2435C18.6049 11.6058 21.8619 8.24346 26.0504 8.24346C26.9023 8.22279 27.7495 8.37359 28.5408 8.68674C29.332 8.99989 30.0507 9.46887 30.6533 10.0652C31.2559 10.6615 31.7297 11.3727 32.0462 12.1557C32.3626 12.9387 32.515 13.7772 32.4941 14.6203L23.508 14.5913C23.6603 18.9739 25.7692 20.3478 28.4228 20.3478C29.1353 20.382 29.8474 20.2727 30.516 20.0265C31.1846 19.7804 31.7958 19.4026 32.3125 18.9159L32.4648 19.0087C31.6623 21.8261 29.4011 23.7043 25.9332 23.7043ZM23.5197 13.9768L27.8019 13.913V12.7826C27.8019 9.94782 27.0462 8.78259 25.8688 8.78259C24.3047 8.78259 23.5197 11.258 23.5197 13.9768ZM39.7609 23.056C40.4975 22.6516 41.1222 22.074 41.5798 21.3741C41.8492 22.719 42.9564 23.6755 44.7899 23.6639C45.669 23.68 46.5312 23.4237 47.2559 22.9311C47.9807 22.4384 48.5317 21.7339 48.8319 20.9161L48.7675 20.8001C48.4315 21.0294 48.0333 21.1528 47.6252 21.1538C47.4457 21.1701 47.2647 21.1462 47.0958 21.0839C46.9269 21.0216 46.7743 20.9225 46.6494 20.7938C46.5245 20.6652 46.4304 20.5104 46.3742 20.3409C46.318 20.1714 46.3011 19.9915 46.3247 19.8147V12.1451C46.3247 9.78565 44.8954 8.23203 41.6384 8.23203C40.2808 8.21585 38.9375 8.50607 37.7103 9.08064C36.4831 9.65522 35.4044 10.499 34.5561 11.548L34.6732 11.7567C35.9134 11.236 37.2451 10.9622 38.5922 10.9509C40.7655 10.9509 41.4919 11.774 41.4919 13.5132V15.3683C38.0826 16.0697 33.9527 17.4842 33.9527 20.7074C33.9527 22.7654 35.5168 23.6929 37.3562 23.6929C38.1984 23.6791 39.0243 23.4604 39.7609 23.056ZM41.4919 15.9944V20.7944V20.8117C41.1015 21.0172 40.6625 21.1153 40.2207 21.0958C39.9532 21.1248 39.6825 21.095 39.428 21.0085C39.1735 20.9221 38.9414 20.781 38.7484 20.5955C38.5553 20.41 38.406 20.1845 38.3112 19.9353C38.2164 19.6861 38.1783 19.4192 38.1997 19.1538C38.1997 17.7335 39.3479 16.5741 41.4919 15.9944ZM54.5142 23.7044C51.8898 23.7044 50.4136 21.8262 50.4136 18.9566V12.1856C50.4637 11.576 50.3883 10.9627 50.1919 10.3828C49.9956 9.80288 49.6824 9.26839 49.2713 8.8117V8.72477H55.2582V18.9914C55.2582 20.2146 55.844 21.2291 57.1854 21.2291C57.6531 21.2079 58.106 21.0599 58.4944 20.8012C58.8829 20.5426 59.192 20.1832 59.388 19.7624V12.1566C59.388 10.3653 58.9663 9.58852 58.2457 8.78272V8.72477H64.2443V17.0494C64.2443 20.3595 64.6368 21.2291 65.7498 22.2668V22.3247L59.5403 23.6697V20.4175L59.4466 20.3827C58.8257 21.6465 57.1386 23.7044 54.5142 23.7044ZM68.2042 9.38003V19.5539C68.2042 22.5394 69.9265 23.7046 72.3516 23.7046C74.7768 23.7046 76.3468 22.5452 77.038 21.3858L76.9501 21.2989C76.4472 21.6441 75.8456 21.8209 75.2338 21.8032C74.027 21.8032 73.0605 21.2409 73.0605 19.4496V9.3916H76.6455V8.73652H73.0605V5.25826H72.7266L66.5171 9.11335V9.38003H68.2042ZM84.0031 24.1103L79.6037 13.2755C78.397 10.4118 77.9752 9.54801 77.3074 8.80018V8.74219H84.7002V8.80018C84.1554 9.48424 83.9152 11.4553 84.7295 13.4379L86.5396 18.0755L88.5313 13.3625C89.4041 11.2118 88.83 9.44946 88.2267 8.7654V8.70741H92.0871V8.7654C90.8499 10.0609 89.8948 11.594 89.2811 13.2697L85.2098 22.9509C82.7963 28.5915 81.0214 29.2176 78.2447 29.9944V26.0523C79.8615 26.1799 82.7378 26.2089 84.0031 24.1103ZM103.469 8.8119C104.992 8.8119 106.257 9.97711 108.155 12.5742L108.448 12.551L108.056 8.82351C106.842 8.46307 105.58 8.29097 104.313 8.31336C100.968 8.31336 98.1325 9.6293 98.1325 12.8815C98.1325 16.0119 100.452 17.1423 102.538 18.0989C104.465 18.9452 106.093 19.6815 106.093 21.2641C106.093 22.2438 105.519 23.2003 103.955 23.2003C101.905 23.2003 100.124 21.5191 98.1618 18.5626L97.8923 18.6264L98.3141 22.8003C99.875 23.4258 101.545 23.741 103.229 23.7279C106.638 23.7279 109.474 22.4119 109.474 19.0438C109.474 15.9771 107.33 14.7829 105.221 13.8264L104.981 13.7339C103.05 12.9886 101.267 12.3006 101.267 10.7249C101.267 9.55972 102.233 8.8119 103.469 8.8119ZM121.547 24.7188V20.8116C121.06 21.6893 120.343 22.4213 119.473 22.9312C118.602 23.4411 117.609 23.7102 116.597 23.7102C113.164 23.7102 110.932 20.8116 110.932 16.6957C110.932 12.3073 113.463 8.2493 119.133 8.2493C121.003 8.21992 122.85 8.66283 124.499 9.53623L126.257 8.31306H126.38V24.7246C126.305 26.4923 126.549 28.259 127.1 29.942V30H120.82V29.9073C121.379 28.2358 121.625 26.4776 121.547 24.7188ZM121.547 20.1797V11.8551C121.271 9.7971 120.34 8.78262 119.104 8.78262C117.265 8.78262 115.935 10.8696 115.935 15.316C115.935 19.4087 117.054 21.258 119.104 21.258C119.568 21.2762 120.029 21.1884 120.453 21.0014C120.876 20.8144 121.251 20.5332 121.547 20.1797ZM129.566 18.9566C129.566 21.8262 131.013 23.7044 133.638 23.7044C136.262 23.7044 137.949 21.6465 138.535 20.3827L138.623 20.4175V23.6697L144.838 22.3247V22.2668C143.719 21.2291 143.327 20.3595 143.327 17.0494V8.72477H137.328V8.78272C138.078 9.58852 138.5 10.3653 138.5 12.1566V19.7624C138.303 20.1828 137.994 20.5418 137.605 20.8004C137.217 21.059 136.765 21.2073 136.297 21.2291C134.95 21.2291 134.364 20.2146 134.364 18.9914V8.72477H128.395V8.8117C128.812 9.26529 129.131 9.79862 129.333 10.3788C129.534 10.9591 129.614 11.5739 129.566 12.1856V18.9566ZM153.9 21.3741C153.442 22.0736 152.818 22.651 152.081 23.0553C151.345 23.4597 150.519 23.6786 149.677 23.6929C147.837 23.6929 146.267 22.7654 146.267 20.7074C146.267 17.4842 150.403 16.0697 153.807 15.3683V13.5132C153.807 11.774 153.086 10.9509 150.913 10.9509C149.566 10.9617 148.234 11.2356 146.994 11.7567L146.871 11.548C147.72 10.4989 148.8 9.65512 150.028 9.08057C151.256 8.50603 152.601 8.21583 153.959 8.23203C157.216 8.23203 158.645 9.78565 158.645 12.1451V19.8147C158.622 19.991 158.639 20.1703 158.694 20.3393C158.75 20.5084 158.844 20.6628 158.968 20.7914C159.092 20.9199 159.244 21.0192 159.412 21.0819C159.581 21.1446 159.761 21.1692 159.94 21.1538C160.358 21.1575 160.767 21.0341 161.111 20.8001L161.17 20.9161C160.871 21.7344 160.32 22.4394 159.595 22.9322C158.87 23.4249 158.007 23.6808 157.128 23.6639C155.289 23.6755 154.17 22.719 153.9 21.3741ZM153.807 20.7944V15.9944C151.668 16.5741 150.52 17.7335 150.52 19.1538C150.499 19.4192 150.537 19.6861 150.632 19.9353C150.727 20.1845 150.876 20.41 151.069 20.5955C151.262 20.781 151.494 20.9221 151.749 21.0085C152.003 21.095 152.274 21.1248 152.541 21.0958C152.981 21.1146 153.418 21.0165 153.807 20.8117V20.7944Z" fill="#A54EC6"/>
</svg>